<?xml version="1.0" encoding="UTF-8"?>
<svg xmlns="http://www.w3.org/2000/svg" xmlns:xlink="http://www.w3.org/1999/xlink" width="512" height="412" viewBox="0 0 59 58" version="1.1"><!-- Generator: Sketch 51.3 (57544) - http://www.bohemiancoding.com/sketch -->   

    <title>029 - Pottery</title><desc>Created with Sketch.</desc><defs/><g id="Page-1" stroke="none" stroke-width="1" fill="none" fill-rule="evenodd"><g id="029---Pottery" transform="translate(0.000000, -1.000000)" fill-rule="nonzero" ><path d="M30.24,29.28 C30.2392417,30.0413184 29.6903945,30.6914913 28.94,30.82 L26.25,31.29 L23.76,31.62 L23.75,31.62 L23.75,32.8 C23.750815,33.0843286 23.7103944,33.3672728 23.63,33.64 C23.3950032,34.5242385 22.7899771,35.2641198 21.97,35.67 C21.96,35.68 21.95,35.68 21.94,35.69 L21.92,35.76 C21.6656414,36.5481306 21.1984494,37.250649 20.57,37.79 C20.0443788,38.244456 19.4218721,38.5728112 18.75,38.75 L18.75,38.76 C17.8896315,39.7544966 16.9087485,40.6379632 15.83,41.39 C15.3098766,41.7627575 14.7653193,42.1001826 14.2,42.4 L13.47,42.79 C11.2879671,43.9558703 8.71183737,44.1341618 6.39,43.28 L3.8,42.32 C3.14063072,42.070932 2.45140237,41.9095517 1.75,41.84 C0.74760397,41.7218715 -0.00591799901,40.8693152 2.22044605e-16,39.86 L2.22044605e-16,26.69 C-0.00193292522,25.908858 0.45109153,25.1980783 1.16,24.87 L5.5,22.88 L8.91,21.49 C9.50722744,21.2475374 10.1454342,21.1219328 10.79,21.12 L22.05,21.12 C22.6889779,21.1216506 23.2524277,21.5391709 23.44,22.15 C23.4883244,22.2915842 23.5120011,22.4404094 23.51,22.59 C23.5063728,23.0404522 23.2962731,23.4643375 22.94,23.74 C21.5991963,24.7640393 19.9757027,25.3505919 18.29,25.42 L11.69,25.69 L18.19,26.38 L22.77,26.86 C24.85,27.08 26.93,27.37 28.99,27.75 C29.6421769,27.871034 30.1402472,28.4014991 30.22,29.06 C30.2311646,29.1328547 30.2378438,29.2063264 30.24,29.28 Z" id="Shape" fill="#FDD7AD"/><path d="M21.97,35.67 C21.96,35.68 21.95,35.68 21.94,35.69 L21.92,35.76 C21.6656414,36.5481306 21.1984494,37.250649 20.57,37.79 L12.05,38.48 L11.97,38.48 C11.4177153,38.5020914 10.9520914,38.0722847 10.93,37.52 C10.9079086,36.9677153 11.3377153,36.5020914 11.89,36.48 L21.95,35.67 L21.97,35.67 Z" id="Shape" fill="#CBB292"/><path d="M18.75,38.76 C17.8896315,39.7544966 16.9087485,40.6379632 15.83,41.39 L11.28,42.32 C11.2146099,42.3360639 11.1472762,42.3427973 11.08,42.34 C10.5662469,42.3405163 10.1356894,41.9516515 10.0840578,41.4404992 C10.0324263,40.9293469 10.3765214,40.4622344 10.88,40.36 L18.75,38.76 Z" id="Shape" fill="#CBB292"/><path d="M41.52,17.02 C41.588338,16.7249299 41.6218997,16.4228743 41.62,16.12 C41.6232574,15.113149 41.2887561,14.1342925 40.67,13.34 L39.16,11.4 C39.0353306,11.2338784 39.0263426,11.0079821 39.1374195,10.8324807 C39.2484964,10.6569792 39.4565051,10.5684227 39.66,10.61 L44.31,11.62 L47.8,12.3 C48.703344,12.4672267 49.6359902,12.362826 50.48,12 C51.1680466,11.7003804 51.6121629,11.0204501 51.61,10.27 C51.6084702,10.0191725 51.5574981,9.77110802 51.46,9.54 C51.2506208,9.03728694 50.8296352,8.65290879 50.31,8.49 L46.88,7.38 L42.56,6.12 L34.06,3.56 L27.082,1.328 C25.1961313,0.72453267 23.1429055,0.947985841 21.431,1.943 L16.272,4.943 C15.4146203,5.44149301 15.0520557,6.49301566 15.42,7.414 L17.93,13.7 C18.0587945,14.0240859 18.2451249,14.3222145 18.48,14.58 L22.5,19.09 C23.7040165,20.4459583 24.7630968,21.9239786 25.66,23.5 L27.22,26.25 C27.6678406,27.0509761 28.6007123,27.447687 29.4882925,27.214609 C30.3758727,26.9815309 30.993474,26.1776666 30.99,25.26 C30.993304,25.1595841 30.9866043,25.0590887 30.97,24.96 C30.622492,22.6030597 29.7287014,20.360022 28.36,18.41 L26.33,15.52 C25.6544601,14.5430709 25.5755928,13.2723443 26.1251479,12.21938 C26.6747029,11.1664157 27.7622607,10.5044607 28.95,10.5 C29.3579143,10.4978566 29.7622631,10.5760081 30.14,10.73 L31.633,11.339 C32.2018793,11.5713682 32.6907817,11.9643666 33.04,12.47 L35.32,15.77 C35.4729085,15.9992284 35.5269815,16.2804081 35.47,16.55 L35.11,18.25 L41.52,17.02 Z" id="Shape" fill="#FDD7AD"/><path d="M29.74,55.02 C29.74,55.01 29.73,55.01 29.73,55 C24.12,43.83 39.88,31.41 34.27,20.24 C33.13,18.45 36.53,17 42.81,17 C49.09,17 52.49,18.45 51.35,20.24 C45.74,31.41 61.5,43.83 55.89,55 L42.625,57.625 L29.74,55.02 Z" id="Shape" fill="#AF8066"/><path d="M23.7500121,31.62 L23.75,32.8 C23.750815,33.0843286 23.7103944,33.3672728 23.63,33.64 L14.47,34.31 L14.4,34.31 C13.8477153,34.3320914 13.3820914,33.9022847 13.36,33.35 C13.3379086,32.7977153 13.7677153,32.3320914 14.32,32.31 L23.7500121,31.62 Z" id="Shape" fill="#CBB292"/><rect id="Rectangle-path" fill="#CBB292" x="28" y="55" width="30" height="4" rx="2"/><path d="M37,52 L22,52 C21.4477153,52 21,51.5522847 21,51 C21,50.4477153 21.4477153,50 22,50 L37,50 C37.5522847,50 38,50.4477153 38,51 C38,51.5522847 37.5522847,52 37,52 Z" id="Shape" fill="#7F5B53"/><path d="M33,47 L22,47 C21.4477153,47 21,46.5522847 21,46 C21,45.4477153 21.4477153,45 22,45 L33,45 C33.5522847,45 34,45.4477153 34,46 C34,46.5522847 33.5522847,47 33,47 Z" id="Shape" fill="#7F5B53"/><path d="M26,42 L22,42 C21.4477153,42 21,41.5522847 21,41 C21,40.4477153 21.4477153,40 22,40 L26,40 C26.5522847,40 27,40.4477153 27,41 C27,41.5522847 26.5522847,42 26,42 Z" id="Shape" fill="#7F5B53"/><path d="M56,37 L46,37 C45.4477153,37 45,36.5522847 45,36 C45,35.4477153 45.4477153,35 46,35 L56,35 C56.5522847,35 57,35.4477153 57,36 C57,36.5522847 56.5522847,37 56,37 Z" id="Shape" fill="#7F5B53"/><path d="M58,42 L48,42 C47.4477153,42 47,41.5522847 47,41 C47,40.4477153 47.4477153,40 48,40 L58,40 C58.5522847,40 59,40.4477153 59,41 C59,41.5522847 58.5522847,42 58,42 Z" id="Shape" fill="#7F5B53"/></g></g>

</svg>
